<svg width="18" height="20" viewBox="0 0 18 20" fill="none" xmlns="http://www.w3.org/2000/svg">
<path fill-rule="evenodd" clip-rule="evenodd" d="M9.00012 2C7.89555 2 7.00012 2.89543 7.00012 4C7.00012 5.10457 7.89555 6 9.00012 6C10.1047 6 11.0001 5.10457 11.0001 4C11.0001 2.89543 10.1047 2 9.00012 2ZM5.00012 4C5.00012 1.79086 6.79098 0 9.00012 0C11.2093 0 13.0001 1.79086 13.0001 4C13.0001 6.20914 11.2093 8 9.00012 8C6.79098 8 5.00012 6.20914 5.00012 4Z" fill="#BDBDBD"/>
<path fill-rule="evenodd" clip-rule="evenodd" d="M2.07638 15.0074C2.51656 15.9692 3.41713 16.6946 4.63474 17.2019C5.98234 17.7634 7.59448 18 9.00012 18C10.4058 18 12.0179 17.7634 13.3655 17.2019C14.5831 16.6946 15.4837 15.9692 15.9239 15.0074C15.4697 14.0901 14.4124 13.3454 13.0161 12.8083C11.5081 12.2283 9.88003 12 9.00012 12C8.12022 12 6.49211 12.2283 4.9841 12.8083C3.58784 13.3454 2.5305 14.0901 2.07638 15.0074ZM4.26614 10.9417C6.00814 10.2717 7.88003 10 9.00012 10C10.1202 10 11.9921 10.2717 13.7341 10.9417C15.4343 11.5956 17.3021 12.7436 17.9488 14.6838C18.0172 14.889 18.0172 15.111 17.9488 15.3162C17.3236 17.1918 15.7841 18.3608 14.1347 19.0481C12.4823 19.7366 10.5945 20 9.00012 20C7.40577 20 5.5179 19.7366 3.86551 19.0481C2.21611 18.3608 0.676634 17.1918 0.0514388 15.3162C-0.0169835 15.111 -0.0169835 14.889 0.0514388 14.6838C0.698169 12.7436 2.56594 11.5956 4.26614 10.9417Z" fill="#BDBDBD"/>
</svg>
