<svg width="20" height="15" viewBox="0 0 20 15" fill="none" xmlns="http://www.w3.org/2000/svg">
<path fill-rule="evenodd" clip-rule="evenodd" d="M0.178202 5.43044C0.365018 5.16087 0.672148 5.00004 1.00013 5.00004H19.0001C19.3281 5.00004 19.6352 5.16087 19.8221 5.43044C20.0089 5.70002 20.0516 6.04406 19.9365 6.35116L16.9365 14.3512C16.7901 14.7415 16.417 15 16.0001 15H4.00013C3.58328 15 3.21016 14.7415 3.0638 14.3512L0.0637986 6.35116C-0.0513626 6.04406 -0.00861321 5.70002 0.178202 5.43044ZM2.44313 7.00004L4.69313 13H15.3071L17.5571 7.00004H2.44313Z" fill="#BDBDBD"/>
<path fill-rule="evenodd" clip-rule="evenodd" d="M8.62482 0.219168C9.05608 0.564178 9.12601 1.19347 8.781 1.62473L4.781 6.62473C4.43599 7.05599 3.80669 7.12592 3.37543 6.78091C2.94417 6.4359 2.87425 5.8066 3.21926 5.37534L7.21926 0.375342C7.56427 -0.0559202 8.19356 -0.125842 8.62482 0.219168Z" fill="#BDBDBD"/>
<path fill-rule="evenodd" clip-rule="evenodd" d="M11.3754 0.219168C10.9442 0.564178 10.8742 1.19347 11.2193 1.62473L15.2193 6.62473C15.5643 7.05599 16.1936 7.12592 16.6248 6.78091C17.0561 6.4359 17.126 5.8066 16.781 5.37534L12.781 0.375342C12.436 -0.0559202 11.8067 -0.125842 11.3754 0.219168Z" fill="#BDBDBD"/>
<path fill-rule="evenodd" clip-rule="evenodd" d="M6.00013 8.00004C6.55241 8.00004 7.00013 8.44775 7.00013 9.00004V11C7.00013 11.5523 6.55241 12 6.00013 12C5.44784 12 5.00013 11.5523 5.00013 11V9.00004C5.00013 8.44775 5.44784 8.00004 6.00013 8.00004Z" fill="#BDBDBD"/>
<path fill-rule="evenodd" clip-rule="evenodd" d="M14.0001 8.00004C14.5524 8.00004 15.0001 8.44775 15.0001 9.00004V11C15.0001 11.5523 14.5524 12 14.0001 12C13.4478 12 13.0001 11.5523 13.0001 11V9.00004C13.0001 8.44775 13.4478 8.00004 14.0001 8.00004Z" fill="#BDBDBD"/>
<path fill-rule="evenodd" clip-rule="evenodd" d="M10.0001 8.00004C10.5524 8.00004 11.0001 8.44775 11.0001 9.00004V11C11.0001 11.5523 10.5524 12 10.0001 12C9.44784 12 9.00013 11.5523 9.00013 11V9.00004C9.00013 8.44775 9.44784 8.00004 10.0001 8.00004Z" fill="#BDBDBD"/>
</svg>
