<svg width="20" height="20" viewBox="0 0 20 20" fill="none" xmlns="http://www.w3.org/2000/svg">
<path fill-rule="evenodd" clip-rule="evenodd" d="M9.38611 0.221735C9.74722 -0.0739115 10.2529 -0.0739115 10.614 0.221735L19.614 7.59016C20.0499 7.94707 20.1285 8.60841 19.7894 9.06731C19.4503 9.5262 18.8221 9.60887 18.3861 9.25195L18 8.93584V17.8947C18 19.0574 17.1046 20 16 20H4C2.89543 20 2 19.0574 2 17.8947V8.93592L1.61399 9.25195C1.17804 9.60887 0.549764 9.5262 0.210694 9.06731C-0.128376 8.60841 -0.0498418 7.94707 0.386105 7.59016L9.38611 0.221735ZM9 12.6316C8.44772 12.6316 8 13.1029 8 13.6842V20H12V13.6842C12 13.1029 11.5523 12.6316 11 12.6316H9Z" fill="#098B5C"/>
</svg>
