<svg width="14" height="18" viewBox="0 0 14 18" fill="none" xmlns="http://www.w3.org/2000/svg">
<path fill-rule="evenodd" clip-rule="evenodd" d="M0.00012207 2C0.00012207 0.89543 0.895553 0 2.00012 0H12.0001C13.1047 0 14.0001 0.895431 14.0001 2V17C14.0001 17.388 13.7757 17.741 13.4243 17.9056C13.0729 18.0702 12.658 18.0166 12.3599 17.7682L7.00012 13.3017L1.64031 17.7682C1.34222 18.0166 0.927351 18.0702 0.575967 17.9056C0.224582 17.741 0.00012207 17.388 0.00012207 17V2ZM12.0001 2H2.00012V14.865L6.35994 11.2318C6.73078 10.9227 7.26946 10.9227 7.64031 11.2318L12.0001 14.865V2Z" fill="#BDBDBD"/>
</svg>
